<?xml version="1.0" standalone="no"?>
<!DOCTYPE svg PUBLIC "-//W3C//DTD SVG 20010904//EN"
 "http://www.w3.org/TR/2001/REC-SVG-20010904/DTD/svg10.dtd">
<svg version="1.0" xmlns="http://www.w3.org/2000/svg"
 width="514.000000pt" height="139.000000pt" viewBox="0 0 514.000000 139.000000"
 preserveAspectRatio="xMidYMid meet">

<g transform="translate(0.000000,139.000000) scale(0.100000,-0.100000)"
fill="#000000" stroke="none">
<path d="M535 1350 c-325 -45 -515 -348 -474 -755 29 -288 181 -489 415 -549
78 -20 222 -21 299 -1 198 51 343 207 401 430 25 96 25 340 1 439 -51 205
-182 355 -355 410 -89 28 -201 38 -287 26z m222 -246 c110 -53 167 -168 179
-364 11 -173 -35 -331 -123 -416 -135 -132 -364 -81 -444 100 -47 107 -64 293
-39 426 21 109 90 218 162 256 76 40 181 39 265 -2z"/>
<path d="M4585 1354 c-11 -2 -45 -9 -75 -15 -116 -24 -228 -107 -277 -206 -19
-41 -28 -75 -31 -132 -5 -99 20 -170 88 -244 55 -61 107 -90 299 -172 202 -86
231 -110 231 -193 0 -47 -30 -96 -72 -118 -49 -26 -162 -30 -233 -9 -73 21
-119 44 -178 89 l-46 35 -71 -84 c-38 -46 -70 -88 -70 -92 0 -13 99 -84 161
-115 85 -43 198 -68 303 -68 163 0 282 45 371 142 68 73 95 142 95 242 0 105
-23 167 -86 236 -57 61 -102 86 -294 165 -200 81 -240 114 -240 192 0 143 237
175 412 55 l44 -30 63 80 64 80 -24 23 c-38 38 -139 94 -204 114 -61 19 -193
33 -230 25z"/>
<path d="M1444 908 c5 -290 11 -443 21 -488 38 -187 126 -303 272 -361 52 -21
75 -24 208 -24 132 0 157 3 205 23 112 45 196 132 239 248 44 117 51 202 51
625 l0 399 -125 0 -125 0 0 -418 c0 -344 -3 -428 -15 -477 -32 -120 -90 -174
-200 -182 -157 -13 -240 60 -265 233 -5 38 -10 243 -10 457 l0 387 -131 0
-132 0 7 -422z"/>
<path d="M2750 690 l0 -640 115 0 115 0 0 313 c0 198 -6 367 -15 462 -8 83
-15 157 -14 165 0 8 33 -77 73 -190 40 -113 108 -301 151 -417 l78 -213 76 0
76 0 97 268 c54 147 121 334 149 415 28 81 53 146 55 144 2 -2 -3 -70 -11
-153 -9 -94 -15 -267 -15 -471 l0 -323 115 0 115 0 0 640 0 641 -142 -3 -142
-3 -98 -275 c-54 -151 -118 -340 -144 -418 -25 -79 -48 -141 -52 -137 -3 3
-23 59 -44 123 -20 64 -86 250 -145 414 l-108 298 -142 0 -143 0 0 -640z"/>
</g>
</svg>
